# xmcd
#
# Track frame offsets: 
#        150
#        17880
#        36526
#        54679
#
# Disc length: 1056 seconds
#
# Revision: 1
# Processed by: cddbd v1.5.2PL0 Copyright (c) Steve Scherf et al.
# Submitted via: ExactAudioCopyFreeDBPlugin 1.0
#
DISCID=34041e04
DTITLE=Mango - Opa
DYEAR=2002
DGENRE=Pop
TTITLE0=Opa (original version)
TTITLE1=Opa (sweet version)
TTITLE2=Vasara (original version)
TTITLE3=Vasara (club mix)
EXTD=Album Mango!
EXTT0=
EXTT1=
EXTT2=
EXTT3=
PLAYORDER=
